<svg width="26" height="34" viewBox="0 0 26 34" fill="none" xmlns="http://www.w3.org/2000/svg">
<path d="M12.75 34C12.75 34 25.5 21.9172 25.5 12.75C25.5 9.36849 24.1567 6.12548 21.7656 3.73439C19.3745 1.3433 16.1315 0 12.75 0C9.36849 0 6.12548 1.3433 3.73439 3.73439C1.3433 6.12548 5.03884e-08 9.36849 0 12.75C0 21.9172 12.75 34 12.75 34ZM12.75 19.125C11.0592 19.125 9.43774 18.4534 8.24219 17.2578C7.04665 16.0623 6.375 14.4408 6.375 12.75C6.375 11.0592 7.04665 9.43774 8.24219 8.24219C9.43774 7.04665 11.0592 6.375 12.75 6.375C14.4408 6.375 16.0623 7.04665 17.2578 8.24219C18.4534 9.43774 19.125 11.0592 19.125 12.75C19.125 14.4408 18.4534 16.0623 17.2578 17.2578C16.0623 18.4534 14.4408 19.125 12.75 19.125Z" fill="white"/>
</svg>
