<svg width="18" height="18" viewBox="0 0 18 18" fill="none" xmlns="http://www.w3.org/2000/svg">
<path d="M15.4688 17.6365H1.71875C1.26306 17.636 0.826183 17.4547 0.503963 17.1325C0.181743 16.8103 0.000500431 16.3734 0 15.9177V7.97185C0.000197811 7.7324 0.0503281 7.49563 0.14719 7.27665C0.244051 7.05766 0.385515 6.86129 0.562547 6.70006L7.43695 0.449483C7.75263 0.16038 8.16516 1.59083e-05 8.59322 1.18354e-09C9.02128 -1.5906e-05 9.43382 0.160317 9.74952 0.449397L16.625 6.70006L16.6252 6.70023C16.8022 6.86149 16.9436 7.05787 17.0404 7.27683C17.1372 7.49579 17.1873 7.73253 17.1875 7.97194V15.9177C17.187 16.3734 17.0058 16.8103 16.6835 17.1325C16.3613 17.4547 15.9244 17.636 15.4688 17.6365ZM2.0625 15.574H15.125V8.12387L8.59324 2.18576L2.0625 8.12387V15.574Z" fill="#747474"/>
</svg>
