<svg width="22" height="22" viewBox="0 0 22 22" fill="none" xmlns="http://www.w3.org/2000/svg">
  <path d="M16.5 1.83337H5.50002C4.48894 1.83337 3.66669 2.65562 3.66669 3.66671V19.25C3.66669 19.4932 3.76326 19.7263 3.93517 19.8982C4.10708 20.0701 4.34024 20.1667 4.58335 20.1667H17.4167C17.6598 20.1667 17.893 20.0701 18.0649 19.8982C18.2368 19.7263 18.3334 19.4932 18.3334 19.25V3.66671C18.3334 2.65562 17.5111 1.83337 16.5 1.83337ZM16.5 18.3334H5.50002V3.66671H16.5V18.3334Z" fill="#BDBDBD"/>
  <path d="M7.33331 5.5H10.0833V7.33333H7.33331V5.5ZM11.9166 5.5H14.6666V7.33333H11.9166V5.5ZM7.33331 9.16667H10.0833V11H7.33331V9.16667ZM11.9166 9.19508H14.6666V11H11.9166V9.19508ZM7.33331 12.8333H10.0833V14.6667H7.33331V12.8333ZM11.9166 12.8333H14.6666V14.6667H11.9166V12.8333Z" fill="#BDBDBD"/>
</svg>
