<svg
  width="16"
  height="16"
  viewBox="0 0 16 16"
  fill="none"
  xmlns="http://www.w3.org/2000/svg"
>
  <path
    d="M15.7344 7.18359H3.16385L10.6877 0.652344C10.808 0.54707 10.7349 0.351562 10.576 0.351562H8.67459C8.59081 0.351562 8.51131 0.38164 8.44901 0.435351L0.330064 7.48008C0.255704 7.54453 0.196067 7.62422 0.155195 7.71374C0.114323 7.80326 0.0931702 7.90052 0.0931702 7.99893C0.0931702 8.09733 0.114323 8.19459 0.155195 8.28411C0.196067 8.37363 0.255704 8.45332 0.330064 8.51777L8.49627 15.6055C8.5285 15.6334 8.56717 15.6484 8.60799 15.6484H10.5738C10.7328 15.6484 10.8058 15.4508 10.6855 15.3477L3.16385 8.81641H15.7344C15.8289 8.81641 15.9062 8.73906 15.9062 8.64453V7.35547C15.9062 7.26094 15.8289 7.18359 15.7344 7.18359Z"
    fill="black"
  />
</svg>
