<svg
  width="24"
  height="23"
  viewBox="0 0 24 23"
  fill="none"
  xmlns="http://www.w3.org/2000/svg"
>
<path
    fill-rule="evenodd"
    clip-rule="evenodd"
    d="M4.017 16.841C4.1727 16.9973 4.292 17.186 4.36641 17.3937C4.44082 17.6014 4.46851 17.8229 4.4475 18.0425C4.34208 19.0589 4.14221 20.0632 3.8505 21.0425C5.943 20.558 7.221 19.997 7.8015 19.703C8.13076 19.5362 8.50993 19.4967 8.8665 19.592C9.88865 19.8645 10.9421 20.0017 12 20C17.994 20 22.5 15.7895 22.5 11C22.5 6.212 17.994 2 12 2C6.006 2 1.5 6.212 1.5 11C1.5 13.202 2.4255 15.245 4.017 16.841ZM3.2775 22.6985C2.9221 22.769 2.56555 22.8335 2.208 22.892C1.908 22.94 1.68 22.628 1.7985 22.349C1.93169 22.0349 2.05376 21.7162 2.1645 21.3935L2.169 21.3785C2.541 20.2985 2.844 19.0565 2.955 17.9C1.1145 16.055 0 13.64 0 11C0 5.201 5.373 0.5 12 0.5C18.627 0.5 24 5.201 24 11C24 16.799 18.627 21.5 12 21.5C10.8115 21.5016 9.62788 21.3473 8.4795 21.041C7.6995 21.4355 6.021 22.154 3.2775 22.6985Z"
    fill="white"
  />
<path
    d="M7.5 11C7.5 11.3978 7.34196 11.7794 7.06066 12.0607C6.77936 12.342 6.39782 12.5 6 12.5C5.60218 12.5 5.22064 12.342 4.93934 12.0607C4.65804 11.7794 4.5 11.3978 4.5 11C4.5 10.6022 4.65804 10.2206 4.93934 9.93934C5.22064 9.65804 5.60218 9.5 6 9.5C6.39782 9.5 6.77936 9.65804 7.06066 9.93934C7.34196 10.2206 7.5 10.6022 7.5 11ZM13.5 11C13.5 11.3978 13.342 11.7794 13.0607 12.0607C12.7794 12.342 12.3978 12.5 12 12.5C11.6022 12.5 11.2206 12.342 10.9393 12.0607C10.658 11.7794 10.5 11.3978 10.5 11C10.5 10.6022 10.658 10.2206 10.9393 9.93934C11.2206 9.65804 11.6022 9.5 12 9.5C12.3978 9.5 12.7794 9.65804 13.0607 9.93934C13.342 10.2206 13.5 10.6022 13.5 11ZM19.5 11C19.5 11.3978 19.342 11.7794 19.0607 12.0607C18.7794 12.342 18.3978 12.5 18 12.5C17.6022 12.5 17.2206 12.342 16.9393 12.0607C16.658 11.7794 16.5 11.3978 16.5 11C16.5 10.6022 16.658 10.2206 16.9393 9.93934C17.2206 9.65804 17.6022 9.5 18 9.5C18.3978 9.5 18.7794 9.65804 19.0607 9.93934C19.342 10.2206 19.5 10.6022 19.5 11Z"
    fill="white"
  />
</svg>
