<svg
  width="20"
  height="20"
  viewBox="0 0 20 20"
  fill="none"
  xmlns="http://www.w3.org/2000/svg"
>
<path
    d="M1.5625 9.0625V19.0625C1.5625 19.1454 1.59542 19.2249 1.65403 19.2835C1.71263 19.3421 1.79212 19.375 1.875 19.375H9.375C9.45788 19.375 9.53737 19.3421 9.59597 19.2835C9.65458 19.2249 9.6875 19.1454 9.6875 19.0625V9.0625C9.6875 8.97962 9.65458 8.90013 9.59597 8.84153C9.53737 8.78292 9.45788 8.75 9.375 8.75H8.75V7.8125C8.75 7.72962 8.71708 7.65013 8.65847 7.59153C8.59987 7.53292 8.52038 7.5 8.4375 7.5H8.125V6.5625C8.125 6.47962 8.09208 6.40013 8.03347 6.34153C7.97487 6.28292 7.89538 6.25 7.8125 6.25H7.5V5.3125C7.5 5.22962 7.46708 5.15013 7.40847 5.09153C7.34987 5.03292 7.27038 5 7.1875 5H5.9375V4.0625C5.9375 3.97962 5.90458 3.90013 5.84597 3.84153C5.78737 3.78292 5.70788 3.75 5.625 3.75C5.54212 3.75 5.46263 3.78292 5.40403 3.84153C5.34542 3.90013 5.3125 3.97962 5.3125 4.0625V5H4.0625C3.97962 5 3.90013 5.03292 3.84153 5.09153C3.78292 5.15013 3.75 5.22962 3.75 5.3125V6.25H3.4375C3.35462 6.25 3.27513 6.28292 3.21653 6.34153C3.15792 6.40013 3.125 6.47962 3.125 6.5625V7.5H2.8125C2.72962 7.5 2.65013 7.53292 2.59153 7.59153C2.53292 7.65013 2.5 7.72962 2.5 7.8125V8.75H1.875C1.79212 8.75 1.71263 8.78292 1.65403 8.84153C1.59542 8.90013 1.5625 8.97962 1.5625 9.0625ZM6.5625 18.75H4.6875V16.875H6.5625V18.75ZM4.375 5.625H6.875V6.25H4.375V5.625ZM3.75 6.875H7.5V7.5H3.75V6.875ZM3.125 8.125H8.125V8.75H3.125V8.125ZM2.1875 9.375H9.0625V18.75H7.1875V16.5625C7.1875 16.4796 7.15458 16.4001 7.09597 16.3415C7.03737 16.2829 6.95788 16.25 6.875 16.25H4.375C4.29212 16.25 4.21263 16.2829 4.15403 16.3415C4.09542 16.4001 4.0625 16.4796 4.0625 16.5625V18.75H2.1875V9.375Z"
    fill="url(#paint0_linear)"
  />
<path
    d="M18.4375 19.0625V0.9375C18.4375 0.85462 18.4046 0.775134 18.346 0.716529C18.2874 0.657924 18.2079 0.625 18.125 0.625H10.625C10.5421 0.625 10.4626 0.657924 10.404 0.716529C10.3454 0.775134 10.3125 0.85462 10.3125 0.9375V19.0625C10.3125 19.1454 10.3454 19.2249 10.404 19.2835C10.4626 19.3421 10.5421 19.375 10.625 19.375H18.125C18.2079 19.375 18.2874 19.3421 18.346 19.2835C18.4046 19.2249 18.4375 19.1454 18.4375 19.0625ZM15.9375 18.75H12.8125V16.875H15.9375V18.75ZM17.8125 18.75H16.5625V16.5625C16.5625 16.4796 16.5296 16.4001 16.471 16.3415C16.4124 16.2829 16.3329 16.25 16.25 16.25H12.5C12.4171 16.25 12.3376 16.2829 12.279 16.3415C12.2204 16.4001 12.1875 16.4796 12.1875 16.5625V18.75H10.9375V1.25H17.8125V18.75Z"
    fill="url(#paint1_linear)"
  />
<path
    d="M7.8125 10.3125H3.4375V10.9375H7.8125V10.3125Z"
    fill="url(#paint2_linear)"
  />
<path
    d="M7.8125 11.5625H3.4375V12.1875H7.8125V11.5625Z"
    fill="url(#paint3_linear)"
  />
<path
    d="M7.8125 12.8125H3.4375V13.4375H7.8125V12.8125Z"
    fill="url(#paint4_linear)"
  />
<path
    d="M7.8125 14.0625H3.4375V14.6875H7.8125V14.0625Z"
    fill="url(#paint5_linear)"
  />
<path
    d="M11.875 4.375H13.75C13.8329 4.375 13.9124 4.34208 13.971 4.28347C14.0296 4.22487 14.0625 4.14538 14.0625 4.0625V2.1875C14.0625 2.10462 14.0296 2.02513 13.971 1.96653C13.9124 1.90792 13.8329 1.875 13.75 1.875H11.875C11.7921 1.875 11.7126 1.90792 11.654 1.96653C11.5954 2.02513 11.5625 2.10462 11.5625 2.1875V4.0625C11.5625 4.14538 11.5954 4.22487 11.654 4.28347C11.7126 4.34208 11.7921 4.375 11.875 4.375ZM12.1875 2.5H13.4375V3.75H12.1875V2.5Z"
    fill="url(#paint6_linear)"
  />
<path
    d="M15 4.375H16.875C16.9579 4.375 17.0374 4.34208 17.096 4.28347C17.1546 4.22487 17.1875 4.14538 17.1875 4.0625V2.1875C17.1875 2.10462 17.1546 2.02513 17.096 1.96653C17.0374 1.90792 16.9579 1.875 16.875 1.875H15C14.9171 1.875 14.8376 1.90792 14.779 1.96653C14.7204 2.02513 14.6875 2.10462 14.6875 2.1875V4.0625C14.6875 4.14538 14.7204 4.22487 14.779 4.28347C14.8376 4.34208 14.9171 4.375 15 4.375ZM15.3125 2.5H16.5625V3.75H15.3125V2.5Z"
    fill="url(#paint7_linear)"
  />
<path
    d="M11.875 7.5H13.75C13.8329 7.5 13.9124 7.46708 13.971 7.40847C14.0296 7.34987 14.0625 7.27038 14.0625 7.1875V5.3125C14.0625 5.22962 14.0296 5.15013 13.971 5.09153C13.9124 5.03292 13.8329 5 13.75 5H11.875C11.7921 5 11.7126 5.03292 11.654 5.09153C11.5954 5.15013 11.5625 5.22962 11.5625 5.3125V7.1875C11.5625 7.27038 11.5954 7.34987 11.654 7.40847C11.7126 7.46708 11.7921 7.5 11.875 7.5ZM12.1875 5.625H13.4375V6.875H12.1875V5.625Z"
    fill="url(#paint8_linear)"
  />
<path
    d="M15 7.5H16.875C16.9579 7.5 17.0374 7.46708 17.096 7.40847C17.1546 7.34987 17.1875 7.27038 17.1875 7.1875V5.3125C17.1875 5.22962 17.1546 5.15013 17.096 5.09153C17.0374 5.03292 16.9579 5 16.875 5H15C14.9171 5 14.8376 5.03292 14.779 5.09153C14.7204 5.15013 14.6875 5.22962 14.6875 5.3125V7.1875C14.6875 7.27038 14.7204 7.34987 14.779 7.40847C14.8376 7.46708 14.9171 7.5 15 7.5ZM15.3125 5.625H16.5625V6.875H15.3125V5.625Z"
    fill="url(#paint9_linear)"
  />
<path
    d="M11.875 10.625H13.75C13.8329 10.625 13.9124 10.5921 13.971 10.5335C14.0296 10.4749 14.0625 10.3954 14.0625 10.3125V8.4375C14.0625 8.35462 14.0296 8.27513 13.971 8.21653C13.9124 8.15792 13.8329 8.125 13.75 8.125H11.875C11.7921 8.125 11.7126 8.15792 11.654 8.21653C11.5954 8.27513 11.5625 8.35462 11.5625 8.4375V10.3125C11.5625 10.3954 11.5954 10.4749 11.654 10.5335C11.7126 10.5921 11.7921 10.625 11.875 10.625ZM12.1875 8.75H13.4375V10H12.1875V8.75Z"
    fill="url(#paint10_linear)"
  />
<path
    d="M15 10.625H16.875C16.9579 10.625 17.0374 10.5921 17.096 10.5335C17.1546 10.4749 17.1875 10.3954 17.1875 10.3125V8.4375C17.1875 8.35462 17.1546 8.27513 17.096 8.21653C17.0374 8.15792 16.9579 8.125 16.875 8.125H15C14.9171 8.125 14.8376 8.15792 14.779 8.21653C14.7204 8.27513 14.6875 8.35462 14.6875 8.4375V10.3125C14.6875 10.3954 14.7204 10.4749 14.779 10.5335C14.8376 10.5921 14.9171 10.625 15 10.625ZM15.3125 8.75H16.5625V10H15.3125V8.75Z"
    fill="url(#paint11_linear)"
  />
<path
    d="M11.875 13.75H13.75C13.8329 13.75 13.9124 13.7171 13.971 13.6585C14.0296 13.5999 14.0625 13.5204 14.0625 13.4375V11.5625C14.0625 11.4796 14.0296 11.4001 13.971 11.3415C13.9124 11.2829 13.8329 11.25 13.75 11.25H11.875C11.7921 11.25 11.7126 11.2829 11.654 11.3415C11.5954 11.4001 11.5625 11.4796 11.5625 11.5625V13.4375C11.5625 13.5204 11.5954 13.5999 11.654 13.6585C11.7126 13.7171 11.7921 13.75 11.875 13.75ZM12.1875 11.875H13.4375V13.125H12.1875V11.875Z"
    fill="url(#paint12_linear)"
  />
<path
    d="M15 13.75H16.875C16.9579 13.75 17.0374 13.7171 17.096 13.6585C17.1546 13.5999 17.1875 13.5204 17.1875 13.4375V11.5625C17.1875 11.4796 17.1546 11.4001 17.096 11.3415C17.0374 11.2829 16.9579 11.25 16.875 11.25H15C14.9171 11.25 14.8376 11.2829 14.779 11.3415C14.7204 11.4001 14.6875 11.4796 14.6875 11.5625V13.4375C14.6875 13.5204 14.7204 13.5999 14.779 13.6585C14.8376 13.7171 14.9171 13.75 15 13.75ZM15.3125 11.875H16.5625V13.125H15.3125V11.875Z"
    fill="url(#paint13_linear)"
  />
<path
    d="M14.6875 14.6875H14.0625V15.3125H14.6875V14.6875Z"
    fill="url(#paint14_linear)"
  />
<path
    d="M15.9375 14.6875H15.3125V15.3125H15.9375V14.6875Z"
    fill="url(#paint15_linear)"
  />
<path
    d="M13.4375 14.6875H12.8125V15.3125H13.4375V14.6875Z"
    fill="url(#paint16_linear)"
  />
<defs>
<linearGradient
      id="paint0_linear"
      x1="-1.1691e-08"
      y1="11.5625"
      x2="20.3987"
      y2="11.5625"
      gradientUnits="userSpaceOnUse"
    >
<stop stop-color="#FC4A1A" />
<stop offset="1" stop-color="#F7B733" />
</linearGradient>
<linearGradient
      id="paint1_linear"
      x1="10.3125"
      y1="600.625"
      x2="540.68"
      y2="600.625"
      gradientUnits="userSpaceOnUse"
    >
<stop stop-color="#FC4A1A" />
<stop offset="1" stop-color="#F7B733" />
</linearGradient>
<linearGradient
      id="paint2_linear"
      x1="3.4375"
      y1="31.5625"
      x2="289.02"
      y2="31.5625"
      gradientUnits="userSpaceOnUse"
    >
<stop stop-color="#FC4A1A" />
<stop offset="1" stop-color="#F7B733" />
</linearGradient>
<linearGradient
      id="paint3_linear"
      x1="3.4375"
      y1="35.3125"
      x2="289.02"
      y2="35.3125"
      gradientUnits="userSpaceOnUse"
    >
<stop stop-color="#FC4A1A" />
<stop offset="1" stop-color="#F7B733" />
</linearGradient>
<linearGradient
      id="paint4_linear"
      x1="3.4375"
      y1="39.0625"
      x2="289.02"
      y2="39.0625"
      gradientUnits="userSpaceOnUse"
    >
<stop stop-color="#FC4A1A" />
<stop offset="1" stop-color="#F7B733" />
</linearGradient>
<linearGradient
      id="paint5_linear"
      x1="3.4375"
      y1="42.8125"
      x2="289.02"
      y2="42.8125"
      gradientUnits="userSpaceOnUse"
    >
<stop stop-color="#FC4A1A" />
<stop offset="1" stop-color="#F7B733" />
</linearGradient>
<linearGradient
      id="paint6_linear"
      x1="11.5625"
      y1="26.875"
      x2="174.752"
      y2="26.875"
      gradientUnits="userSpaceOnUse"
    >
<stop stop-color="#FC4A1A" />
<stop offset="1" stop-color="#F7B733" />
</linearGradient>
<linearGradient
      id="paint7_linear"
      x1="14.6875"
      y1="26.875"
      x2="177.877"
      y2="26.875"
      gradientUnits="userSpaceOnUse"
    >
<stop stop-color="#FC4A1A" />
<stop offset="1" stop-color="#F7B733" />
</linearGradient>
<linearGradient
      id="paint8_linear"
      x1="11.5625"
      y1="55"
      x2="174.752"
      y2="55"
      gradientUnits="userSpaceOnUse"
    >
<stop stop-color="#FC4A1A" />
<stop offset="1" stop-color="#F7B733" />
</linearGradient>
<linearGradient
      id="paint9_linear"
      x1="14.6875"
      y1="55"
      x2="177.877"
      y2="55"
      gradientUnits="userSpaceOnUse"
    >
<stop stop-color="#FC4A1A" />
<stop offset="1" stop-color="#F7B733" />
</linearGradient>
<linearGradient
      id="paint10_linear"
      x1="11.5625"
      y1="83.125"
      x2="174.752"
      y2="83.125"
      gradientUnits="userSpaceOnUse"
    >
<stop stop-color="#FC4A1A" />
<stop offset="1" stop-color="#F7B733" />
</linearGradient>
<linearGradient
      id="paint11_linear"
      x1="14.6875"
      y1="83.125"
      x2="177.877"
      y2="83.125"
      gradientUnits="userSpaceOnUse"
    >
<stop stop-color="#FC4A1A" />
<stop offset="1" stop-color="#F7B733" />
</linearGradient>
<linearGradient
      id="paint12_linear"
      x1="11.5625"
      y1="111.25"
      x2="174.752"
      y2="111.25"
      gradientUnits="userSpaceOnUse"
    >
<stop stop-color="#FC4A1A" />
<stop offset="1" stop-color="#F7B733" />
</linearGradient>
<linearGradient
      id="paint13_linear"
      x1="14.6875"
      y1="111.25"
      x2="177.877"
      y2="111.25"
      gradientUnits="userSpaceOnUse"
    >
<stop stop-color="#FC4A1A" />
<stop offset="1" stop-color="#F7B733" />
</linearGradient>
<linearGradient
      id="paint14_linear"
      x1="14.0625"
      y1="44.6875"
      x2="54.86"
      y2="44.6875"
      gradientUnits="userSpaceOnUse"
    >
<stop stop-color="#FC4A1A" />
<stop offset="1" stop-color="#F7B733" />
</linearGradient>
<linearGradient
      id="paint15_linear"
      x1="15.3125"
      y1="44.6875"
      x2="56.11"
      y2="44.6875"
      gradientUnits="userSpaceOnUse"
    >
<stop stop-color="#FC4A1A" />
<stop offset="1" stop-color="#F7B733" />
</linearGradient>
<linearGradient
      id="paint16_linear"
      x1="12.8125"
      y1="44.6875"
      x2="53.61"
      y2="44.6875"
      gradientUnits="userSpaceOnUse"
    >
<stop stop-color="#FC4A1A" />
<stop offset="1" stop-color="#F7B733" />
</linearGradient>
</defs>
</svg>
