<svg width="38" height="38" viewBox="0 0 38 38" fill="none" xmlns="http://www.w3.org/2000/svg">
<g clip-path="url(#clip0)">
<path d="M37.3667 31.6667H32.3L33.2185 22.0482C35.4664 20.7704 36.5716 18.1384 35.9098 15.6388C35.2483 13.1389 32.9859 11.3985 30.4 11.4V1.9C30.4 0.850732 29.5493 0 28.5 0H1.9C0.850732 0 0 0.850732 0 1.9V36.1C0 37.1493 0.850732 38 1.9 38H34.8333C35.8826 38 36.7333 37.1493 36.7333 36.1V35.4667H37.3667C37.7164 35.4667 38 35.1831 38 34.8333V32.3C38 31.9502 37.7164 31.6667 37.3667 31.6667ZM31.029 31.6667H29.7957L28.9141 22.5968C29.8891 22.869 30.9198 22.869 31.8946 22.5968L31.029 31.6667ZM34.8333 17.1C34.8333 19.5486 32.8486 21.5333 30.4 21.5333C27.9514 21.5333 25.9667 19.5486 25.9667 17.1C25.9667 14.6514 27.9514 12.6667 30.4 12.6667C32.8471 12.6698 34.8302 14.6529 34.8333 17.1ZM1.26667 36.1V1.9C1.26667 1.55024 1.55024 1.26667 1.9 1.26667H28.5C28.8498 1.26667 29.1333 1.55024 29.1333 1.9V11.5469C26.84 12.067 25.1026 13.9438 24.7606 16.2706C24.4186 18.5974 25.5427 20.8947 27.5893 22.0526L28.5235 31.6667H23.4333C23.0836 31.6667 22.8 31.9502 22.8 32.3V34.8333C22.8 35.1831 23.0836 35.4667 23.4333 35.4667H24.0667V36.1C24.0688 36.3162 24.1081 36.5305 24.1833 36.7333H1.9C1.55024 36.7333 1.26667 36.4498 1.26667 36.1ZM35.4667 36.1C35.4667 36.4498 35.1831 36.7333 34.8333 36.7333H25.9667C25.6169 36.7333 25.3333 36.4498 25.3333 36.1V35.4667H35.4667V36.1ZM36.7333 34.2H24.0667V32.9333H36.7333V34.2Z" fill="url(#paint0_linear)"/>
<path d="M22.6145 22.2433L20.8233 20.4522C20.5759 20.2051 20.1751 20.2051 19.9277 20.4522L17.9486 22.4313C16.3399 21.8533 14.5419 22.2557 13.3331 23.4645C12.1243 24.6734 11.7219 26.4713 12.2999 28.08L10.0752 30.305C9.8278 30.5524 9.8278 30.9532 10.0752 31.2006L11.866 32.9914C12.1134 33.2388 12.5142 33.2388 12.7616 32.9914L14.9783 30.7748C16.5885 31.3518 18.3874 30.9485 19.5968 29.7388C20.8063 28.5293 21.2099 26.7308 20.6328 25.1205L22.6138 23.1395C22.7329 23.0207 22.7997 22.8596 22.8 22.6914C22.8 22.5235 22.7332 22.3621 22.6145 22.2433ZM14.2277 24.361C14.9316 23.6581 15.9255 23.3281 16.9101 23.4707L13.3343 27.0471C13.1936 26.0612 13.5245 25.0664 14.2277 24.361ZM18.7062 28.8389C18.0014 29.5409 17.0085 29.8724 16.0232 29.7338L19.6036 26.1528C19.7428 27.1393 19.4104 28.1341 18.7062 28.8389ZM12.3138 31.6484L11.4182 30.7528L20.3755 21.7955L21.2711 22.6911L12.3138 31.6484Z" fill="url(#paint1_linear)"/>
<path d="M10.1333 5.06672H19.6333C19.9831 5.06672 20.2667 4.78314 20.2667 4.43338C20.2667 4.08363 19.9831 3.80005 19.6333 3.80005H10.1333C9.78358 3.80005 9.5 4.08363 9.5 4.43338C9.5 4.78314 9.78358 5.06672 10.1333 5.06672Z" fill="url(#paint2_linear)"/>
<path d="M3.80001 8.86664H26.6C26.9498 8.86664 27.2333 8.58306 27.2333 8.23331C27.2333 7.88355 26.9498 7.59998 26.6 7.59998H3.80001C3.45025 7.59998 3.16667 7.88355 3.16667 8.23331C3.16667 8.58306 3.45025 8.86664 3.80001 8.86664Z" fill="url(#paint3_linear)"/>
<path d="M3.80001 11.4H26.6C26.9498 11.4 27.2333 11.1164 27.2333 10.7666C27.2333 10.4169 26.9498 10.1333 26.6 10.1333H3.80001C3.45025 10.1333 3.16667 10.4169 3.16667 10.7666C3.16667 11.1164 3.45025 11.4 3.80001 11.4Z" fill="url(#paint4_linear)"/>
<path d="M3.80001 13.9333H10.1333C10.4831 13.9333 10.7667 13.6497 10.7667 13.3C10.7667 12.9502 10.4831 12.6666 10.1333 12.6666H3.80001C3.45025 12.6666 3.16667 12.9502 3.16667 13.3C3.16667 13.6497 3.45025 13.9333 3.80001 13.9333Z" fill="url(#paint5_linear)"/>
<path d="M24.0667 12.6666H12.6667C12.3169 12.6666 12.0333 12.9502 12.0333 13.3C12.0333 13.6497 12.3169 13.9333 12.6667 13.9333H24.0667C24.4164 13.9333 24.7 13.6497 24.7 13.3C24.7 12.9502 24.4164 12.6666 24.0667 12.6666Z" fill="url(#paint6_linear)"/>
<path d="M3.80001 16.4666H19C19.3498 16.4666 19.6333 16.183 19.6333 15.8333C19.6333 15.4835 19.3498 15.2 19 15.2H3.80001C3.45025 15.2 3.16667 15.4835 3.16667 15.8333C3.16667 16.183 3.45025 16.4666 3.80001 16.4666Z" fill="url(#paint7_linear)"/>
<path d="M12.6667 18.3666C12.6667 18.0169 12.3831 17.7333 12.0333 17.7333H3.80001C3.45025 17.7333 3.16667 18.0169 3.16667 18.3666C3.16667 18.7164 3.45025 18.9999 3.80001 18.9999H12.0333C12.3831 18.9999 12.6667 18.7164 12.6667 18.3666Z" fill="url(#paint8_linear)"/>
</g>
<defs>
<linearGradient id="paint0_linear" x1="1.26667" y1="19" x2="38.767" y2="19" gradientUnits="userSpaceOnUse">
<stop stop-color="#4761AC"/>
<stop offset="1" stop-color="#54C2EF"/>
</linearGradient>
<linearGradient id="paint1_linear" x1="1.26667" y1="26.7215" x2="38.767" y2="26.7215" gradientUnits="userSpaceOnUse">
<stop stop-color="#4761AC"/>
<stop offset="1" stop-color="#54C2EF"/>
</linearGradient>
<linearGradient id="paint2_linear" x1="1.26667" y1="4.43338" x2="38.767" y2="4.43338" gradientUnits="userSpaceOnUse">
<stop stop-color="#4761AC"/>
<stop offset="1" stop-color="#54C2EF"/>
</linearGradient>
<linearGradient id="paint3_linear" x1="1.26667" y1="8.23331" x2="38.767" y2="8.23331" gradientUnits="userSpaceOnUse">
<stop stop-color="#4761AC"/>
<stop offset="1" stop-color="#54C2EF"/>
</linearGradient>
<linearGradient id="paint4_linear" x1="1.26667" y1="10.7666" x2="38.767" y2="10.7666" gradientUnits="userSpaceOnUse">
<stop stop-color="#4761AC"/>
<stop offset="1" stop-color="#54C2EF"/>
</linearGradient>
<linearGradient id="paint5_linear" x1="1.26667" y1="13.3" x2="38.767" y2="13.3" gradientUnits="userSpaceOnUse">
<stop stop-color="#4761AC"/>
<stop offset="1" stop-color="#54C2EF"/>
</linearGradient>
<linearGradient id="paint6_linear" x1="1.26666" y1="13.3" x2="38.767" y2="13.3" gradientUnits="userSpaceOnUse">
<stop stop-color="#4761AC"/>
<stop offset="1" stop-color="#54C2EF"/>
</linearGradient>
<linearGradient id="paint7_linear" x1="1.26667" y1="15.8333" x2="38.767" y2="15.8333" gradientUnits="userSpaceOnUse">
<stop stop-color="#4761AC"/>
<stop offset="1" stop-color="#54C2EF"/>
</linearGradient>
<linearGradient id="paint8_linear" x1="1.26667" y1="18.3666" x2="38.767" y2="18.3666" gradientUnits="userSpaceOnUse">
<stop stop-color="#4761AC"/>
<stop offset="1" stop-color="#54C2EF"/>
</linearGradient>
<clipPath id="clip0">
<rect width="38" height="38" fill="white"/>
</clipPath>
</defs>
</svg>
