<svg width="34" height="36" viewBox="0 0 34 36" fill="none" xmlns="http://www.w3.org/2000/svg">
<path d="M0.96875 16.2188V35.2188C0.96875 35.3762 1.03131 35.5272 1.14266 35.6386C1.25401 35.7499 1.40503 35.8125 1.5625 35.8125H15.8125C15.97 35.8125 16.121 35.7499 16.2323 35.6386C16.3437 35.5272 16.4062 35.3762 16.4062 35.2188V16.2188C16.4062 16.0613 16.3437 15.9103 16.2323 15.7989C16.121 15.6876 15.97 15.625 15.8125 15.625H14.625V13.8438C14.625 13.6863 14.5624 13.5353 14.4511 13.4239C14.3397 13.3126 14.1887 13.25 14.0312 13.25H13.4375V11.4688C13.4375 11.3113 13.3749 11.1603 13.2636 11.0489C13.1522 10.9376 13.0012 10.875 12.8438 10.875H12.25V9.09375C12.25 8.93628 12.1874 8.78525 12.0761 8.6739C11.9647 8.56256 11.8137 8.5 11.6562 8.5H9.28125V6.71875C9.28125 6.56128 9.21869 6.41026 9.10735 6.29891C8.996 6.18756 8.84497 6.125 8.6875 6.125C8.53003 6.125 8.379 6.18756 8.26765 6.29891C8.15631 6.41026 8.09375 6.56128 8.09375 6.71875V8.5H5.71875C5.56128 8.5 5.41025 8.56256 5.29891 8.6739C5.18756 8.78525 5.125 8.93628 5.125 9.09375V10.875H4.53125C4.37378 10.875 4.22276 10.9376 4.11141 11.0489C4.00006 11.1603 3.9375 11.3113 3.9375 11.4688V13.25H3.34375C3.18628 13.25 3.03526 13.3126 2.92391 13.4239C2.81256 13.5353 2.75 13.6863 2.75 13.8438V15.625H1.5625C1.40503 15.625 1.25401 15.6876 1.14266 15.7989C1.03131 15.9103 0.96875 16.0613 0.96875 16.2188ZM10.4688 34.625H6.90625V31.0625H10.4688V34.625ZM6.3125 9.6875H11.0625V10.875H6.3125V9.6875ZM5.125 12.0625H12.25V13.25H5.125V12.0625ZM3.9375 14.4375H13.4375V15.625H3.9375V14.4375ZM2.15625 16.8125H15.2188V34.625H11.6562V30.4688C11.6562 30.3113 11.5937 30.1603 11.4823 30.0489C11.371 29.9376 11.22 29.875 11.0625 29.875H6.3125C6.15503 29.875 6.004 29.9376 5.89266 30.0489C5.78131 30.1603 5.71875 30.3113 5.71875 30.4688V34.625H2.15625V16.8125Z" fill="url(#paint0_linear)"/>
<path d="M33.0312 35.2188V0.78125C33.0312 0.623778 32.9687 0.472755 32.8573 0.361405C32.746 0.250056 32.595 0.1875 32.4375 0.1875H18.1875C18.03 0.1875 17.879 0.250056 17.7677 0.361405C17.6563 0.472755 17.5938 0.623778 17.5938 0.78125V35.2188C17.5938 35.3762 17.6563 35.5272 17.7677 35.6386C17.879 35.7499 18.03 35.8125 18.1875 35.8125H32.4375C32.595 35.8125 32.746 35.7499 32.8573 35.6386C32.9687 35.5272 33.0312 35.3762 33.0312 35.2188ZM28.2812 34.625H22.3438V31.0625H28.2812V34.625ZM31.8438 34.625H29.4688V30.4688C29.4688 30.3113 29.4062 30.1603 29.2948 30.0489C29.1835 29.9376 29.0325 29.875 28.875 29.875H21.75C21.5925 29.875 21.4415 29.9376 21.3302 30.0489C21.2188 30.1603 21.1562 30.3113 21.1562 30.4688V34.625H18.7812V1.375H31.8438V34.625Z" fill="url(#paint1_linear)"/>
<path d="M12.8438 18.5938H4.53125V19.7812H12.8438V18.5938Z" fill="url(#paint2_linear)"/>
<path d="M12.8438 20.9688H4.53125V22.1562H12.8438V20.9688Z" fill="url(#paint3_linear)"/>
<path d="M12.8438 23.3438H4.53125V24.5312H12.8438V23.3438Z" fill="url(#paint4_linear)"/>
<path d="M12.8438 25.7188H4.53125V26.9062H12.8438V25.7188Z" fill="url(#paint5_linear)"/>
<path d="M20.5625 7.3125H24.125C24.2825 7.3125 24.4335 7.24994 24.5448 7.13859C24.6562 7.02725 24.7188 6.87622 24.7188 6.71875V3.15625C24.7188 2.99878 24.6562 2.84776 24.5448 2.73641C24.4335 2.62506 24.2825 2.5625 24.125 2.5625H20.5625C20.405 2.5625 20.254 2.62506 20.1427 2.73641C20.0313 2.84776 19.9688 2.99878 19.9688 3.15625V6.71875C19.9688 6.87622 20.0313 7.02725 20.1427 7.13859C20.254 7.24994 20.405 7.3125 20.5625 7.3125ZM21.1562 3.75H23.5312V6.125H21.1562V3.75Z" fill="url(#paint6_linear)"/>
<path d="M26.5 7.3125H30.0625C30.22 7.3125 30.371 7.24994 30.4823 7.13859C30.5937 7.02725 30.6562 6.87622 30.6562 6.71875V3.15625C30.6562 2.99878 30.5937 2.84776 30.4823 2.73641C30.371 2.62506 30.22 2.5625 30.0625 2.5625H26.5C26.3425 2.5625 26.1915 2.62506 26.0802 2.73641C25.9688 2.84776 25.9062 2.99878 25.9062 3.15625V6.71875C25.9062 6.87622 25.9688 7.02725 26.0802 7.13859C26.1915 7.24994 26.3425 7.3125 26.5 7.3125ZM27.0938 3.75H29.4688V6.125H27.0938V3.75Z" fill="url(#paint7_linear)"/>
<path d="M20.5625 13.25H24.125C24.2825 13.25 24.4335 13.1874 24.5448 13.0761C24.6562 12.9647 24.7188 12.8137 24.7188 12.6562V9.09375C24.7188 8.93628 24.6562 8.78525 24.5448 8.6739C24.4335 8.56256 24.2825 8.5 24.125 8.5H20.5625C20.405 8.5 20.254 8.56256 20.1427 8.6739C20.0313 8.78525 19.9688 8.93628 19.9688 9.09375V12.6562C19.9688 12.8137 20.0313 12.9647 20.1427 13.0761C20.254 13.1874 20.405 13.25 20.5625 13.25ZM21.1562 9.6875H23.5312V12.0625H21.1562V9.6875Z" fill="url(#paint8_linear)"/>
<path d="M26.5 13.25H30.0625C30.22 13.25 30.371 13.1874 30.4823 13.0761C30.5937 12.9647 30.6562 12.8137 30.6562 12.6562V9.09375C30.6562 8.93628 30.5937 8.78525 30.4823 8.6739C30.371 8.56256 30.22 8.5 30.0625 8.5H26.5C26.3425 8.5 26.1915 8.56256 26.0802 8.6739C25.9688 8.78525 25.9062 8.93628 25.9062 9.09375V12.6562C25.9062 12.8137 25.9688 12.9647 26.0802 13.0761C26.1915 13.1874 26.3425 13.25 26.5 13.25ZM27.0938 9.6875H29.4688V12.0625H27.0938V9.6875Z" fill="url(#paint9_linear)"/>
<path d="M20.5625 19.1875H24.125C24.2825 19.1875 24.4335 19.1249 24.5448 19.0136C24.6562 18.9022 24.7188 18.7512 24.7188 18.5938V15.0312C24.7188 14.8738 24.6562 14.7228 24.5448 14.6114C24.4335 14.5001 24.2825 14.4375 24.125 14.4375H20.5625C20.405 14.4375 20.254 14.5001 20.1427 14.6114C20.0313 14.7228 19.9688 14.8738 19.9688 15.0312V18.5938C19.9688 18.7512 20.0313 18.9022 20.1427 19.0136C20.254 19.1249 20.405 19.1875 20.5625 19.1875ZM21.1562 15.625H23.5312V18H21.1562V15.625Z" fill="url(#paint10_linear)"/>
<path d="M26.5 19.1875H30.0625C30.22 19.1875 30.371 19.1249 30.4823 19.0136C30.5937 18.9022 30.6562 18.7512 30.6562 18.5938V15.0312C30.6562 14.8738 30.5937 14.7228 30.4823 14.6114C30.371 14.5001 30.22 14.4375 30.0625 14.4375H26.5C26.3425 14.4375 26.1915 14.5001 26.0802 14.6114C25.9688 14.7228 25.9062 14.8738 25.9062 15.0312V18.5938C25.9062 18.7512 25.9688 18.9022 26.0802 19.0136C26.1915 19.1249 26.3425 19.1875 26.5 19.1875ZM27.0938 15.625H29.4688V18H27.0938V15.625Z" fill="url(#paint11_linear)"/>
<path d="M20.5625 25.125H24.125C24.2825 25.125 24.4335 25.0624 24.5448 24.9511C24.6562 24.8397 24.7188 24.6887 24.7188 24.5312V20.9688C24.7188 20.8113 24.6562 20.6603 24.5448 20.5489C24.4335 20.4376 24.2825 20.375 24.125 20.375H20.5625C20.405 20.375 20.254 20.4376 20.1427 20.5489C20.0313 20.6603 19.9688 20.8113 19.9688 20.9688V24.5312C19.9688 24.6887 20.0313 24.8397 20.1427 24.9511C20.254 25.0624 20.405 25.125 20.5625 25.125ZM21.1562 21.5625H23.5312V23.9375H21.1562V21.5625Z" fill="url(#paint12_linear)"/>
<path d="M26.5 25.125H30.0625C30.22 25.125 30.371 25.0624 30.4823 24.9511C30.5937 24.8397 30.6562 24.6887 30.6562 24.5312V20.9688C30.6562 20.8113 30.5937 20.6603 30.4823 20.5489C30.371 20.4376 30.22 20.375 30.0625 20.375H26.5C26.3425 20.375 26.1915 20.4376 26.0802 20.5489C25.9688 20.6603 25.9062 20.8113 25.9062 20.9688V24.5312C25.9062 24.6887 25.9688 24.8397 26.0802 24.9511C26.1915 25.0624 26.3425 25.125 26.5 25.125ZM27.0938 21.5625H29.4688V23.9375H27.0938V21.5625Z" fill="url(#paint13_linear)"/>
<path d="M25.9062 26.9062H24.7188V28.0938H25.9062V26.9062Z" fill="url(#paint14_linear)"/>
<path d="M28.2812 26.9062H27.0938V28.0938H28.2812V26.9062Z" fill="url(#paint15_linear)"/>
<path d="M23.5312 26.9062H22.3438V28.0938H23.5312V26.9062Z" fill="url(#paint16_linear)"/>
<defs>
<linearGradient id="paint0_linear" x1="-2" y1="20.9687" x2="36.7576" y2="20.9687" gradientUnits="userSpaceOnUse">
<stop stop-color="#FC4A1A"/>
<stop offset="1" stop-color="#F7B733"/>
</linearGradient>
<linearGradient id="paint1_linear" x1="17.5938" y1="1140.19" x2="1025.29" y2="1140.19" gradientUnits="userSpaceOnUse">
<stop stop-color="#FC4A1A"/>
<stop offset="1" stop-color="#F7B733"/>
</linearGradient>
<linearGradient id="paint2_linear" x1="4.53125" y1="58.9687" x2="547.138" y2="58.9687" gradientUnits="userSpaceOnUse">
<stop stop-color="#FC4A1A"/>
<stop offset="1" stop-color="#F7B733"/>
</linearGradient>
<linearGradient id="paint3_linear" x1="4.53125" y1="66.0937" x2="547.138" y2="66.0937" gradientUnits="userSpaceOnUse">
<stop stop-color="#FC4A1A"/>
<stop offset="1" stop-color="#F7B733"/>
</linearGradient>
<linearGradient id="paint4_linear" x1="4.53125" y1="73.2188" x2="547.138" y2="73.2188" gradientUnits="userSpaceOnUse">
<stop stop-color="#FC4A1A"/>
<stop offset="1" stop-color="#F7B733"/>
</linearGradient>
<linearGradient id="paint5_linear" x1="4.53125" y1="80.3437" x2="547.138" y2="80.3437" gradientUnits="userSpaceOnUse">
<stop stop-color="#FC4A1A"/>
<stop offset="1" stop-color="#F7B733"/>
</linearGradient>
<linearGradient id="paint6_linear" x1="19.9688" y1="50.0625" x2="330.03" y2="50.0625" gradientUnits="userSpaceOnUse">
<stop stop-color="#FC4A1A"/>
<stop offset="1" stop-color="#F7B733"/>
</linearGradient>
<linearGradient id="paint7_linear" x1="25.9062" y1="50.0625" x2="335.967" y2="50.0625" gradientUnits="userSpaceOnUse">
<stop stop-color="#FC4A1A"/>
<stop offset="1" stop-color="#F7B733"/>
</linearGradient>
<linearGradient id="paint8_linear" x1="19.9688" y1="103.5" x2="330.03" y2="103.5" gradientUnits="userSpaceOnUse">
<stop stop-color="#FC4A1A"/>
<stop offset="1" stop-color="#F7B733"/>
</linearGradient>
<linearGradient id="paint9_linear" x1="25.9062" y1="103.5" x2="335.967" y2="103.5" gradientUnits="userSpaceOnUse">
<stop stop-color="#FC4A1A"/>
<stop offset="1" stop-color="#F7B733"/>
</linearGradient>
<linearGradient id="paint10_linear" x1="19.9688" y1="156.937" x2="330.03" y2="156.937" gradientUnits="userSpaceOnUse">
<stop stop-color="#FC4A1A"/>
<stop offset="1" stop-color="#F7B733"/>
</linearGradient>
<linearGradient id="paint11_linear" x1="25.9062" y1="156.937" x2="335.967" y2="156.937" gradientUnits="userSpaceOnUse">
<stop stop-color="#FC4A1A"/>
<stop offset="1" stop-color="#F7B733"/>
</linearGradient>
<linearGradient id="paint12_linear" x1="19.9688" y1="210.375" x2="330.03" y2="210.375" gradientUnits="userSpaceOnUse">
<stop stop-color="#FC4A1A"/>
<stop offset="1" stop-color="#F7B733"/>
</linearGradient>
<linearGradient id="paint13_linear" x1="25.9062" y1="210.375" x2="335.967" y2="210.375" gradientUnits="userSpaceOnUse">
<stop stop-color="#FC4A1A"/>
<stop offset="1" stop-color="#F7B733"/>
</linearGradient>
<linearGradient id="paint14_linear" x1="24.7188" y1="83.9062" x2="102.234" y2="83.9062" gradientUnits="userSpaceOnUse">
<stop stop-color="#FC4A1A"/>
<stop offset="1" stop-color="#F7B733"/>
</linearGradient>
<linearGradient id="paint15_linear" x1="27.0938" y1="83.9062" x2="104.609" y2="83.9062" gradientUnits="userSpaceOnUse">
<stop stop-color="#FC4A1A"/>
<stop offset="1" stop-color="#F7B733"/>
</linearGradient>
<linearGradient id="paint16_linear" x1="22.3438" y1="83.9062" x2="99.859" y2="83.9062" gradientUnits="userSpaceOnUse">
<stop stop-color="#FC4A1A"/>
<stop offset="1" stop-color="#F7B733"/>
</linearGradient>
</defs>
</svg>
